<mxfile host="Electron" agent="Mozilla/5.0 (Windows NT 10.0; Win64; x64) AppleWebKit/537.36 (KHTML, like Gecko) draw.io/25.0.2 Chrome/128.0.6613.186 Electron/32.2.5 Safari/537.36" version="25.0.2">
  <diagram name="Seite-1" id="q2QHLzLYXpVYBQE_3g32">
    <mxGraphModel dx="6447" dy="4327" grid="0" gridSize="10" guides="1" tooltips="1" connect="1" arrows="1" fold="1" page="0" pageScale="1" pageWidth="827" pageHeight="1169" background="none" math="0" shadow="0">
      <root>
        <mxCell id="0" />
        <mxCell id="1" parent="0" />
        <mxCell id="BK80fyBNw5CtZlqeT4nZ-48" style="edgeStyle=orthogonalEdgeStyle;rounded=0;orthogonalLoop=1;jettySize=auto;html=1;entryX=0;entryY=0.5;entryDx=0;entryDy=0;startArrow=none;startFill=0;endArrow=diamond;endFill=1;" parent="1" source="JjhomQdFj9FOFFwPfBJc-15" target="JjhomQdFj9FOFFwPfBJc-128" edge="1">
          <mxGeometry relative="1" as="geometry">
            <Array as="points">
              <mxPoint x="-3794" y="-1928" />
              <mxPoint x="-3794" y="-3108" />
            </Array>
          </mxGeometry>
        </mxCell>
        <mxCell id="JjhomQdFj9FOFFwPfBJc-15" value="JsonHandler" style="swimlane;fontStyle=1;align=center;verticalAlign=top;childLayout=stackLayout;horizontal=1;startSize=26;horizontalStack=0;resizeParent=1;resizeParentMax=0;resizeLast=0;collapsible=1;marginBottom=0;whiteSpace=wrap;html=1;rounded=0;" parent="1" vertex="1">
          <mxGeometry x="-4384" y="-2010" width="290" height="216" as="geometry" />
        </mxCell>
        <mxCell id="JjhomQdFj9FOFFwPfBJc-35" value="- m_filePath: string&amp;nbsp;" style="text;strokeColor=none;fillColor=none;align=left;verticalAlign=top;spacingLeft=4;spacingRight=4;overflow=hidden;rotatable=0;points=[[0,0.5],[1,0.5]];portConstraint=eastwest;whiteSpace=wrap;html=1;rounded=0;" parent="JjhomQdFj9FOFFwPfBJc-15" vertex="1">
          <mxGeometry y="26" width="290" height="26" as="geometry" />
        </mxCell>
        <mxCell id="JjhomQdFj9FOFFwPfBJc-17" value="" style="line;strokeWidth=1;fillColor=none;align=left;verticalAlign=middle;spacingTop=-1;spacingLeft=3;spacingRight=3;rotatable=0;labelPosition=right;points=[];portConstraint=eastwest;strokeColor=inherit;rounded=0;" parent="JjhomQdFj9FOFFwPfBJc-15" vertex="1">
          <mxGeometry y="52" width="290" height="8" as="geometry" />
        </mxCell>
        <mxCell id="JjhomQdFj9FOFFwPfBJc-39" value="+ JsonHandler(filepath: string)" style="text;strokeColor=none;fillColor=none;align=left;verticalAlign=top;spacingLeft=4;spacingRight=4;overflow=hidden;rotatable=0;points=[[0,0.5],[1,0.5]];portConstraint=eastwest;whiteSpace=wrap;html=1;rounded=0;" parent="JjhomQdFj9FOFFwPfBJc-15" vertex="1">
          <mxGeometry y="60" width="290" height="26" as="geometry" />
        </mxCell>
        <mxCell id="JjhomQdFj9FOFFwPfBJc-36" value="+ loadJson(): void" style="text;strokeColor=none;fillColor=none;align=left;verticalAlign=top;spacingLeft=4;spacingRight=4;overflow=hidden;rotatable=0;points=[[0,0.5],[1,0.5]];portConstraint=eastwest;whiteSpace=wrap;html=1;rounded=0;" parent="JjhomQdFj9FOFFwPfBJc-15" vertex="1">
          <mxGeometry y="86" width="290" height="26" as="geometry" />
        </mxCell>
        <mxCell id="JjhomQdFj9FOFFwPfBJc-18" value="+ parseJson(): JsonObject" style="text;strokeColor=none;fillColor=none;align=left;verticalAlign=top;spacingLeft=4;spacingRight=4;overflow=hidden;rotatable=0;points=[[0,0.5],[1,0.5]];portConstraint=eastwest;whiteSpace=wrap;html=1;rounded=0;" parent="JjhomQdFj9FOFFwPfBJc-15" vertex="1">
          <mxGeometry y="112" width="290" height="26" as="geometry" />
        </mxCell>
        <mxCell id="JjhomQdFj9FOFFwPfBJc-37" value="+ saveJson(): void" style="text;strokeColor=none;fillColor=none;align=left;verticalAlign=top;spacingLeft=4;spacingRight=4;overflow=hidden;rotatable=0;points=[[0,0.5],[1,0.5]];portConstraint=eastwest;whiteSpace=wrap;html=1;rounded=0;" parent="JjhomQdFj9FOFFwPfBJc-15" vertex="1">
          <mxGeometry y="138" width="290" height="26" as="geometry" />
        </mxCell>
        <mxCell id="JjhomQdFj9FOFFwPfBJc-38" value="+ getValueByKey(): VariantType" style="text;strokeColor=none;fillColor=none;align=left;verticalAlign=top;spacingLeft=4;spacingRight=4;overflow=hidden;rotatable=0;points=[[0,0.5],[1,0.5]];portConstraint=eastwest;whiteSpace=wrap;html=1;rounded=0;" parent="JjhomQdFj9FOFFwPfBJc-15" vertex="1">
          <mxGeometry y="164" width="290" height="26" as="geometry" />
        </mxCell>
        <mxCell id="JjhomQdFj9FOFFwPfBJc-34" value="+ updateJson(key: string, value: VariantType): void" style="text;strokeColor=none;fillColor=none;align=left;verticalAlign=top;spacingLeft=4;spacingRight=4;overflow=hidden;rotatable=0;points=[[0,0.5],[1,0.5]];portConstraint=eastwest;whiteSpace=wrap;html=1;rounded=0;" parent="JjhomQdFj9FOFFwPfBJc-15" vertex="1">
          <mxGeometry y="190" width="290" height="26" as="geometry" />
        </mxCell>
        <mxCell id="JjhomQdFj9FOFFwPfBJc-22" value="Flightcontroller" style="swimlane;fontStyle=1;align=center;verticalAlign=top;childLayout=stackLayout;horizontal=1;startSize=26;horizontalStack=0;resizeParent=1;resizeParentMax=0;resizeLast=0;collapsible=1;marginBottom=0;whiteSpace=wrap;html=1;rounded=0;" parent="1" vertex="1">
          <mxGeometry x="-3760" y="-3251" width="233" height="242" as="geometry" />
        </mxCell>
        <mxCell id="JjhomQdFj9FOFFwPfBJc-126" value="+ m_p_safetyHandler: SafetyHandler*" style="text;strokeColor=none;fillColor=none;align=left;verticalAlign=top;spacingLeft=4;spacingRight=4;overflow=hidden;rotatable=0;points=[[0,0.5],[1,0.5]];portConstraint=eastwest;whiteSpace=wrap;html=1;rounded=0;" parent="JjhomQdFj9FOFFwPfBJc-22" vertex="1">
          <mxGeometry y="26" width="233" height="26" as="geometry" />
        </mxCell>
        <mxCell id="JjhomQdFj9FOFFwPfBJc-23" value="+ m_p_sensorManager: SensorManager* " style="text;strokeColor=none;fillColor=none;align=left;verticalAlign=top;spacingLeft=4;spacingRight=4;overflow=hidden;rotatable=0;points=[[0,0.5],[1,0.5]];portConstraint=eastwest;whiteSpace=wrap;html=1;rounded=0;" parent="JjhomQdFj9FOFFwPfBJc-22" vertex="1">
          <mxGeometry y="52" width="233" height="26" as="geometry" />
        </mxCell>
        <mxCell id="JjhomQdFj9FOFFwPfBJc-127" value="+ m_p_inputManager: InputManager* " style="text;strokeColor=none;fillColor=none;align=left;verticalAlign=top;spacingLeft=4;spacingRight=4;overflow=hidden;rotatable=0;points=[[0,0.5],[1,0.5]];portConstraint=eastwest;whiteSpace=wrap;html=1;rounded=0;" parent="JjhomQdFj9FOFFwPfBJc-22" vertex="1">
          <mxGeometry y="78" width="233" height="26" as="geometry" />
        </mxCell>
        <mxCell id="JjhomQdFj9FOFFwPfBJc-125" value="+ m_p_modeManager: ModeManager*" style="text;strokeColor=none;fillColor=none;align=left;verticalAlign=top;spacingLeft=4;spacingRight=4;overflow=hidden;rotatable=0;points=[[0,0.5],[1,0.5]];portConstraint=eastwest;whiteSpace=wrap;html=1;rounded=0;" parent="JjhomQdFj9FOFFwPfBJc-22" vertex="1">
          <mxGeometry y="104" width="233" height="26" as="geometry" />
        </mxCell>
        <mxCell id="JjhomQdFj9FOFFwPfBJc-128" value="+ m_p_jsonHandler: JsonHandler* " style="text;strokeColor=none;fillColor=none;align=left;verticalAlign=top;spacingLeft=4;spacingRight=4;overflow=hidden;rotatable=0;points=[[0,0.5],[1,0.5]];portConstraint=eastwest;whiteSpace=wrap;html=1;rounded=0;" parent="JjhomQdFj9FOFFwPfBJc-22" vertex="1">
          <mxGeometry y="130" width="233" height="26" as="geometry" />
        </mxCell>
        <mxCell id="JjhomQdFj9FOFFwPfBJc-24" value="" style="line;strokeWidth=1;fillColor=none;align=left;verticalAlign=middle;spacingTop=-1;spacingLeft=3;spacingRight=3;rotatable=0;labelPosition=right;points=[];portConstraint=eastwest;strokeColor=inherit;rounded=0;" parent="JjhomQdFj9FOFFwPfBJc-22" vertex="1">
          <mxGeometry y="156" width="233" height="8" as="geometry" />
        </mxCell>
        <mxCell id="JjhomQdFj9FOFFwPfBJc-25" value="+ init(): void&lt;span style=&quot;white-space: pre;&quot;&gt;&#x9;&lt;/span&gt;" style="text;strokeColor=none;fillColor=none;align=left;verticalAlign=top;spacingLeft=4;spacingRight=4;overflow=hidden;rotatable=0;points=[[0,0.5],[1,0.5]];portConstraint=eastwest;whiteSpace=wrap;html=1;rounded=0;" parent="JjhomQdFj9FOFFwPfBJc-22" vertex="1">
          <mxGeometry y="164" width="233" height="26" as="geometry" />
        </mxCell>
        <mxCell id="JjhomQdFj9FOFFwPfBJc-26" value="+ run(): void" style="text;strokeColor=none;fillColor=none;align=left;verticalAlign=top;spacingLeft=4;spacingRight=4;overflow=hidden;rotatable=0;points=[[0,0.5],[1,0.5]];portConstraint=eastwest;whiteSpace=wrap;html=1;rounded=0;" parent="JjhomQdFj9FOFFwPfBJc-22" vertex="1">
          <mxGeometry y="190" width="233" height="26" as="geometry" />
        </mxCell>
        <mxCell id="JjhomQdFj9FOFFwPfBJc-27" value="+ checkSafety(): void" style="text;strokeColor=none;fillColor=none;align=left;verticalAlign=top;spacingLeft=4;spacingRight=4;overflow=hidden;rotatable=0;points=[[0,0.5],[1,0.5]];portConstraint=eastwest;whiteSpace=wrap;html=1;rounded=0;" parent="JjhomQdFj9FOFFwPfBJc-22" vertex="1">
          <mxGeometry y="216" width="233" height="26" as="geometry" />
        </mxCell>
        <mxCell id="JjhomQdFj9FOFFwPfBJc-28" value="MPU6050Handler" style="swimlane;fontStyle=1;align=center;verticalAlign=top;childLayout=stackLayout;horizontal=1;startSize=26;horizontalStack=0;resizeParent=1;resizeParentMax=0;resizeLast=0;collapsible=1;marginBottom=0;whiteSpace=wrap;html=1;rounded=0;" parent="1" vertex="1">
          <mxGeometry x="-4474" y="-2920" width="160" height="190" as="geometry" />
        </mxCell>
        <mxCell id="JjhomQdFj9FOFFwPfBJc-29" value="- m_gyroData: float" style="text;strokeColor=none;fillColor=none;align=left;verticalAlign=top;spacingLeft=4;spacingRight=4;overflow=hidden;rotatable=0;points=[[0,0.5],[1,0.5]];portConstraint=eastwest;whiteSpace=wrap;html=1;rounded=0;" parent="JjhomQdFj9FOFFwPfBJc-28" vertex="1">
          <mxGeometry y="26" width="160" height="26" as="geometry" />
        </mxCell>
        <mxCell id="JjhomQdFj9FOFFwPfBJc-102" value="- m_accelData: float" style="text;strokeColor=none;fillColor=none;align=left;verticalAlign=top;spacingLeft=4;spacingRight=4;overflow=hidden;rotatable=0;points=[[0,0.5],[1,0.5]];portConstraint=eastwest;whiteSpace=wrap;html=1;rounded=0;" parent="JjhomQdFj9FOFFwPfBJc-28" vertex="1">
          <mxGeometry y="52" width="160" height="26" as="geometry" />
        </mxCell>
        <mxCell id="JjhomQdFj9FOFFwPfBJc-30" value="" style="line;strokeWidth=1;fillColor=none;align=left;verticalAlign=middle;spacingTop=-1;spacingLeft=3;spacingRight=3;rotatable=0;labelPosition=right;points=[];portConstraint=eastwest;strokeColor=inherit;rounded=0;" parent="JjhomQdFj9FOFFwPfBJc-28" vertex="1">
          <mxGeometry y="78" width="160" height="8" as="geometry" />
        </mxCell>
        <mxCell id="JjhomQdFj9FOFFwPfBJc-31" value="+ readGyroData(): float" style="text;strokeColor=none;fillColor=none;align=left;verticalAlign=top;spacingLeft=4;spacingRight=4;overflow=hidden;rotatable=0;points=[[0,0.5],[1,0.5]];portConstraint=eastwest;whiteSpace=wrap;html=1;rounded=0;" parent="JjhomQdFj9FOFFwPfBJc-28" vertex="1">
          <mxGeometry y="86" width="160" height="26" as="geometry" />
        </mxCell>
        <mxCell id="JjhomQdFj9FOFFwPfBJc-103" value="+ readAccelData(): float" style="text;strokeColor=none;fillColor=none;align=left;verticalAlign=top;spacingLeft=4;spacingRight=4;overflow=hidden;rotatable=0;points=[[0,0.5],[1,0.5]];portConstraint=eastwest;whiteSpace=wrap;html=1;rounded=0;" parent="JjhomQdFj9FOFFwPfBJc-28" vertex="1">
          <mxGeometry y="112" width="160" height="26" as="geometry" />
        </mxCell>
        <mxCell id="JjhomQdFj9FOFFwPfBJc-113" value="+ calibrateSensor(): void" style="text;strokeColor=none;fillColor=none;align=left;verticalAlign=top;spacingLeft=4;spacingRight=4;overflow=hidden;rotatable=0;points=[[0,0.5],[1,0.5]];portConstraint=eastwest;whiteSpace=wrap;html=1;rounded=0;" parent="JjhomQdFj9FOFFwPfBJc-28" vertex="1">
          <mxGeometry y="138" width="160" height="26" as="geometry" />
        </mxCell>
        <mxCell id="JjhomQdFj9FOFFwPfBJc-104" value="+ checkForError(): bool" style="text;strokeColor=none;fillColor=none;align=left;verticalAlign=top;spacingLeft=4;spacingRight=4;overflow=hidden;rotatable=0;points=[[0,0.5],[1,0.5]];portConstraint=eastwest;whiteSpace=wrap;html=1;rounded=0;" parent="JjhomQdFj9FOFFwPfBJc-28" vertex="1">
          <mxGeometry y="164" width="160" height="26" as="geometry" />
        </mxCell>
        <mxCell id="JjhomQdFj9FOFFwPfBJc-40" value="SensorManager" style="swimlane;fontStyle=1;align=center;verticalAlign=top;childLayout=stackLayout;horizontal=1;startSize=26;horizontalStack=0;resizeParent=1;resizeParentMax=0;resizeLast=0;collapsible=1;marginBottom=0;whiteSpace=wrap;html=1;rounded=0;" parent="1" vertex="1">
          <mxGeometry x="-4234" y="-2920" width="335" height="268" as="geometry" />
        </mxCell>
        <mxCell id="JjhomQdFj9FOFFwPfBJc-41" value="+ m_p_mpuHandler: MPU6050Handler*" style="text;strokeColor=none;fillColor=none;align=left;verticalAlign=top;spacingLeft=4;spacingRight=4;overflow=hidden;rotatable=0;points=[[0,0.5],[1,0.5]];portConstraint=eastwest;whiteSpace=wrap;html=1;rounded=0;" parent="JjhomQdFj9FOFFwPfBJc-40" vertex="1">
          <mxGeometry y="26" width="335" height="26" as="geometry" />
        </mxCell>
        <mxCell id="JjhomQdFj9FOFFwPfBJc-131" value="+ m_p_bmpHandler: BMP280Handler*" style="text;strokeColor=none;fillColor=none;align=left;verticalAlign=top;spacingLeft=4;spacingRight=4;overflow=hidden;rotatable=0;points=[[0,0.5],[1,0.5]];portConstraint=eastwest;whiteSpace=wrap;html=1;rounded=0;" parent="JjhomQdFj9FOFFwPfBJc-40" vertex="1">
          <mxGeometry y="52" width="335" height="26" as="geometry" />
        </mxCell>
        <mxCell id="JjhomQdFj9FOFFwPfBJc-133" value="+ m_roll: float" style="text;strokeColor=none;fillColor=none;align=left;verticalAlign=top;spacingLeft=4;spacingRight=4;overflow=hidden;rotatable=0;points=[[0,0.5],[1,0.5]];portConstraint=eastwest;whiteSpace=wrap;html=1;rounded=0;" parent="JjhomQdFj9FOFFwPfBJc-40" vertex="1">
          <mxGeometry y="78" width="335" height="26" as="geometry" />
        </mxCell>
        <mxCell id="JjhomQdFj9FOFFwPfBJc-134" value="+ m_pitch: float" style="text;strokeColor=none;fillColor=none;align=left;verticalAlign=top;spacingLeft=4;spacingRight=4;overflow=hidden;rotatable=0;points=[[0,0.5],[1,0.5]];portConstraint=eastwest;whiteSpace=wrap;html=1;rounded=0;" parent="JjhomQdFj9FOFFwPfBJc-40" vertex="1">
          <mxGeometry y="104" width="335" height="26" as="geometry" />
        </mxCell>
        <mxCell id="JjhomQdFj9FOFFwPfBJc-132" value="+ m_yaw: float" style="text;strokeColor=none;fillColor=none;align=left;verticalAlign=top;spacingLeft=4;spacingRight=4;overflow=hidden;rotatable=0;points=[[0,0.5],[1,0.5]];portConstraint=eastwest;whiteSpace=wrap;html=1;rounded=0;" parent="JjhomQdFj9FOFFwPfBJc-40" vertex="1">
          <mxGeometry y="130" width="335" height="26" as="geometry" />
        </mxCell>
        <mxCell id="JjhomQdFj9FOFFwPfBJc-42" value="" style="line;strokeWidth=1;fillColor=none;align=left;verticalAlign=middle;spacingTop=-1;spacingLeft=3;spacingRight=3;rotatable=0;labelPosition=right;points=[];portConstraint=eastwest;strokeColor=inherit;rounded=0;" parent="JjhomQdFj9FOFFwPfBJc-40" vertex="1">
          <mxGeometry y="156" width="335" height="8" as="geometry" />
        </mxCell>
        <mxCell id="JjhomQdFj9FOFFwPfBJc-43" value="+ init(): void " style="text;strokeColor=none;fillColor=none;align=left;verticalAlign=top;spacingLeft=4;spacingRight=4;overflow=hidden;rotatable=0;points=[[0,0.5],[1,0.5]];portConstraint=eastwest;whiteSpace=wrap;html=1;rounded=0;" parent="JjhomQdFj9FOFFwPfBJc-40" vertex="1">
          <mxGeometry y="164" width="335" height="26" as="geometry" />
        </mxCell>
        <mxCell id="JjhomQdFj9FOFFwPfBJc-136" value="+&amp;nbsp;updateSensors(): void&amp;nbsp;&lt;span style=&quot;color: rgba(0, 0, 0, 0); font-family: monospace; font-size: 0px; text-wrap: nowrap;&quot;&gt;%3CmxGraphModel%3E%3Croot%3E%3CmxCell%20id%3D%220%22%2F%3E%3CmxCell%20id%3D%221%22%20parent%3D%220%22%2F%3E%3CmxCell%20id%3D%222%22%20value%3D%22%2B%20init()%3A%20void%20%22%20style%3D%22text%3BstrokeColor%3Dnone%3BfillColor%3Dnone%3Balign%3Dleft%3BverticalAlign%3Dtop%3BspacingLeft%3D4%3BspacingRight%3D4%3Boverflow%3Dhidden%3Brotatable%3D0%3Bpoints%3D%5B%5B0%2C0.5%5D%2C%5B1%2C0.5%5D%5D%3BportConstraint%3Deastwest%3BwhiteSpace%3Dwrap%3Bhtml%3D1%3B%22%20vertex%3D%221%22%20parent%3D%221%22%3E%3CmxGeometry%20x%3D%22-668%22%20y%3D%22-540%22%20width%3D%22289%22%20height%3D%2226%22%20as%3D%22geometry%22%2F%3E%3C%2FmxCell%3E%3C%2Froot%3E%3C%2FmxGraphModel%3E&lt;/span&gt;" style="text;strokeColor=none;fillColor=none;align=left;verticalAlign=top;spacingLeft=4;spacingRight=4;overflow=hidden;rotatable=0;points=[[0,0.5],[1,0.5]];portConstraint=eastwest;whiteSpace=wrap;html=1;rounded=0;" parent="JjhomQdFj9FOFFwPfBJc-40" vertex="1">
          <mxGeometry y="190" width="335" height="26" as="geometry" />
        </mxCell>
        <mxCell id="JjhomQdFj9FOFFwPfBJc-137" value="+&amp;nbsp;getFilteredData(float&amp;amp; roll, float&amp;amp; pitch, float&amp;amp; yaw): void&lt;span style=&quot;color: rgba(0, 0, 0, 0); font-family: monospace; font-size: 0px; text-wrap: nowrap;&quot;&gt;%3CmxGraphModel%3E%3Croot%3E%3CmxCell%20id%3D%220%22%2F%3E%3CmxCell%20id%3D%221%22%20parent%3D%220%22%2F%3E%3CmxCell%20id%3D%222%22%20value%3D%22%2B%20init()%3A%20void%20%22%20style%3D%22text%3BstrokeColor%3Dnone%3BfillColor%3Dnone%3Balign%3Dleft%3BverticalAlign%3Dtop%3BspacingLeft%3D4%3BspacingRight%3D4%3Boverflow%3Dhidden%3Brotatable%3D0%3Bpoints%3D%5B%5B0%2C0.5%5D%2C%5B1%2C0.5%5D%5D%3BportConstraint%3Deastwest%3BwhiteSpace%3Dwrap%3Bhtml%3D1%3B%22%20vertex%3D%221%22%20parent%3D%221%22%3E%3CmxGeometry%20x%3D%22-668%22%20y%3D%22-540%22%20width%3D%22289%22%20height%3D%2226%22%20as%3D%22geometry%22%2F%3E%3C%2FmxCell%3E%3C%2Froot%3E%3C%2FmxGraphModel%3E&lt;/span&gt;" style="text;strokeColor=none;fillColor=none;align=left;verticalAlign=top;spacingLeft=4;spacingRight=4;overflow=hidden;rotatable=0;points=[[0,0.5],[1,0.5]];portConstraint=eastwest;whiteSpace=wrap;html=1;rounded=0;" parent="JjhomQdFj9FOFFwPfBJc-40" vertex="1">
          <mxGeometry y="216" width="335" height="26" as="geometry" />
        </mxCell>
        <mxCell id="JjhomQdFj9FOFFwPfBJc-135" value="+&amp;nbsp;checkSensorHealth(): bool &lt;span style=&quot;color: rgba(0, 0, 0, 0); font-family: monospace; font-size: 0px; text-wrap: nowrap;&quot;&gt;%3CmxGraphModel%3E%3Croot%3E%3CmxCell%20id%3D%220%22%2F%3E%3CmxCell%20id%3D%221%22%20parent%3D%220%22%2F%3E%3CmxCell%20id%3D%222%22%20value%3D%22%2B%20init()%3A%20void%20%22%20style%3D%22text%3BstrokeColor%3Dnone%3BfillColor%3Dnone%3Balign%3Dleft%3BverticalAlign%3Dtop%3BspacingLeft%3D4%3BspacingRight%3D4%3Boverflow%3Dhidden%3Brotatable%3D0%3Bpoints%3D%5B%5B0%2C0.5%5D%2C%5B1%2C0.5%5D%5D%3BportConstraint%3Deastwest%3BwhiteSpace%3Dwrap%3Bhtml%3D1%3B%22%20vertex%3D%221%22%20parent%3D%221%22%3E%3CmxGeometry%20x%3D%22-668%22%20y%3D%22-540%22%20width%3D%22289%22%20height%3D%2226%22%20as%3D%22geometry%22%2F%3E%3C%2FmxCell%3E%3C%2Froot%3E%3C%2FmxGraphModel%3E&lt;/span&gt;" style="text;strokeColor=none;fillColor=none;align=left;verticalAlign=top;spacingLeft=4;spacingRight=4;overflow=hidden;rotatable=0;points=[[0,0.5],[1,0.5]];portConstraint=eastwest;whiteSpace=wrap;html=1;rounded=0;" parent="JjhomQdFj9FOFFwPfBJc-40" vertex="1">
          <mxGeometry y="242" width="335" height="26" as="geometry" />
        </mxCell>
        <mxCell id="JjhomQdFj9FOFFwPfBJc-51" style="edgeStyle=orthogonalEdgeStyle;rounded=0;orthogonalLoop=1;jettySize=auto;html=1;exitX=1;exitY=0.5;exitDx=0;exitDy=0;entryX=0;entryY=0.5;entryDx=0;entryDy=0;endArrow=diamond;startFill=0;startArrow=none;endFill=1;" parent="1" source="JjhomQdFj9FOFFwPfBJc-29" target="JjhomQdFj9FOFFwPfBJc-41" edge="1">
          <mxGeometry relative="1" as="geometry" />
        </mxCell>
        <mxCell id="JjhomQdFj9FOFFwPfBJc-52" style="edgeStyle=orthogonalEdgeStyle;rounded=0;orthogonalLoop=1;jettySize=auto;html=1;exitX=1;exitY=0.5;exitDx=0;exitDy=0;entryX=0;entryY=0.5;entryDx=0;entryDy=0;startArrow=none;startFill=0;endArrow=diamond;endFill=1;" parent="1" source="JjhomQdFj9FOFFwPfBJc-41" target="JjhomQdFj9FOFFwPfBJc-23" edge="1">
          <mxGeometry relative="1" as="geometry">
            <Array as="points">
              <mxPoint x="-3899" y="-2882" />
              <mxPoint x="-3869" y="-2882" />
              <mxPoint x="-3869" y="-3186" />
            </Array>
          </mxGeometry>
        </mxCell>
        <mxCell id="JjhomQdFj9FOFFwPfBJc-53" value="BMP280Handler" style="swimlane;fontStyle=1;align=center;verticalAlign=top;childLayout=stackLayout;horizontal=1;startSize=26;horizontalStack=0;resizeParent=1;resizeParentMax=0;resizeLast=0;collapsible=1;marginBottom=0;whiteSpace=wrap;html=1;rounded=0;" parent="1" vertex="1">
          <mxGeometry x="-4474" y="-2717" width="160" height="164" as="geometry" />
        </mxCell>
        <mxCell id="JjhomQdFj9FOFFwPfBJc-54" value="+ m_pressData: type" style="text;strokeColor=none;fillColor=none;align=left;verticalAlign=top;spacingLeft=4;spacingRight=4;overflow=hidden;rotatable=0;points=[[0,0.5],[1,0.5]];portConstraint=eastwest;whiteSpace=wrap;html=1;rounded=0;" parent="JjhomQdFj9FOFFwPfBJc-53" vertex="1">
          <mxGeometry y="26" width="160" height="26" as="geometry" />
        </mxCell>
        <mxCell id="JjhomQdFj9FOFFwPfBJc-129" value="+ m_tempData: type" style="text;strokeColor=none;fillColor=none;align=left;verticalAlign=top;spacingLeft=4;spacingRight=4;overflow=hidden;rotatable=0;points=[[0,0.5],[1,0.5]];portConstraint=eastwest;whiteSpace=wrap;html=1;rounded=0;" parent="JjhomQdFj9FOFFwPfBJc-53" vertex="1">
          <mxGeometry y="52" width="160" height="26" as="geometry" />
        </mxCell>
        <mxCell id="JjhomQdFj9FOFFwPfBJc-55" value="" style="line;strokeWidth=1;fillColor=none;align=left;verticalAlign=middle;spacingTop=-1;spacingLeft=3;spacingRight=3;rotatable=0;labelPosition=right;points=[];portConstraint=eastwest;strokeColor=inherit;rounded=0;" parent="JjhomQdFj9FOFFwPfBJc-53" vertex="1">
          <mxGeometry y="78" width="160" height="8" as="geometry" />
        </mxCell>
        <mxCell id="JjhomQdFj9FOFFwPfBJc-112" value="+ readPressureData(): type" style="text;strokeColor=none;fillColor=none;align=left;verticalAlign=top;spacingLeft=4;spacingRight=4;overflow=hidden;rotatable=0;points=[[0,0.5],[1,0.5]];portConstraint=eastwest;whiteSpace=wrap;html=1;rounded=0;" parent="JjhomQdFj9FOFFwPfBJc-53" vertex="1">
          <mxGeometry y="86" width="160" height="26" as="geometry" />
        </mxCell>
        <mxCell id="JjhomQdFj9FOFFwPfBJc-56" value="+ readTemperature(): type" style="text;strokeColor=none;fillColor=none;align=left;verticalAlign=top;spacingLeft=4;spacingRight=4;overflow=hidden;rotatable=0;points=[[0,0.5],[1,0.5]];portConstraint=eastwest;whiteSpace=wrap;html=1;rounded=0;" parent="JjhomQdFj9FOFFwPfBJc-53" vertex="1">
          <mxGeometry y="112" width="160" height="26" as="geometry" />
        </mxCell>
        <mxCell id="JjhomQdFj9FOFFwPfBJc-117" value="+ checkForError(): bool" style="text;strokeColor=none;fillColor=none;align=left;verticalAlign=top;spacingLeft=4;spacingRight=4;overflow=hidden;rotatable=0;points=[[0,0.5],[1,0.5]];portConstraint=eastwest;whiteSpace=wrap;html=1;rounded=0;" parent="JjhomQdFj9FOFFwPfBJc-53" vertex="1">
          <mxGeometry y="138" width="160" height="26" as="geometry" />
        </mxCell>
        <mxCell id="JjhomQdFj9FOFFwPfBJc-57" style="edgeStyle=orthogonalEdgeStyle;rounded=0;orthogonalLoop=1;jettySize=auto;html=1;exitX=1;exitY=0.5;exitDx=0;exitDy=0;entryX=0;entryY=0.5;entryDx=0;entryDy=0;endArrow=diamond;startFill=0;startArrow=none;endFill=1;" parent="1" source="JjhomQdFj9FOFFwPfBJc-54" target="JjhomQdFj9FOFFwPfBJc-41" edge="1">
          <mxGeometry relative="1" as="geometry" />
        </mxCell>
        <mxCell id="JjhomQdFj9FOFFwPfBJc-71" value="HelicopterLogic" style="swimlane;fontStyle=1;align=center;verticalAlign=top;childLayout=stackLayout;horizontal=1;startSize=26;horizontalStack=0;resizeParent=1;resizeParentMax=0;resizeLast=0;collapsible=1;marginBottom=0;whiteSpace=wrap;html=1;rounded=0;" parent="1" vertex="1">
          <mxGeometry x="-3195" y="-3251" width="247" height="242" as="geometry" />
        </mxCell>
        <mxCell id="JjhomQdFj9FOFFwPfBJc-72" value="- mainMotor: Servo" style="text;strokeColor=none;fillColor=none;align=left;verticalAlign=top;spacingLeft=4;spacingRight=4;overflow=hidden;rotatable=0;points=[[0,0.5],[1,0.5]];portConstraint=eastwest;whiteSpace=wrap;html=1;rounded=0;" parent="JjhomQdFj9FOFFwPfBJc-71" vertex="1">
          <mxGeometry y="26" width="247" height="26" as="geometry" />
        </mxCell>
        <mxCell id="k9uboM6s9roa3EWM2hxK-10" value="- mainMotor: Servo" style="text;strokeColor=none;fillColor=none;align=left;verticalAlign=top;spacingLeft=4;spacingRight=4;overflow=hidden;rotatable=0;points=[[0,0.5],[1,0.5]];portConstraint=eastwest;whiteSpace=wrap;html=1;rounded=0;" parent="JjhomQdFj9FOFFwPfBJc-71" vertex="1">
          <mxGeometry y="52" width="247" height="26" as="geometry" />
        </mxCell>
        <mxCell id="JjhomQdFj9FOFFwPfBJc-73" value="" style="line;strokeWidth=1;fillColor=none;align=left;verticalAlign=middle;spacingTop=-1;spacingLeft=3;spacingRight=3;rotatable=0;labelPosition=right;points=[];portConstraint=eastwest;strokeColor=inherit;rounded=0;" parent="JjhomQdFj9FOFFwPfBJc-71" vertex="1">
          <mxGeometry y="78" width="247" height="8" as="geometry" />
        </mxCell>
        <mxCell id="k9uboM6s9roa3EWM2hxK-11" value="+ calculateAftMotorInput(): unsigned long" style="text;strokeColor=none;fillColor=none;align=left;verticalAlign=top;spacingLeft=4;spacingRight=4;overflow=hidden;rotatable=0;points=[[0,0.5],[1,0.5]];portConstraint=eastwest;whiteSpace=wrap;html=1;rounded=0;" parent="JjhomQdFj9FOFFwPfBJc-71" vertex="1">
          <mxGeometry y="86" width="247" height="26" as="geometry" />
        </mxCell>
        <mxCell id="k9uboM6s9roa3EWM2hxK-13" value="+ calculateSwashplatePositions(): void" style="text;strokeColor=none;fillColor=none;align=left;verticalAlign=top;spacingLeft=4;spacingRight=4;overflow=hidden;rotatable=0;points=[[0,0.5],[1,0.5]];portConstraint=eastwest;whiteSpace=wrap;html=1;rounded=0;" parent="JjhomQdFj9FOFFwPfBJc-71" vertex="1">
          <mxGeometry y="112" width="247" height="26" as="geometry" />
        </mxCell>
        <mxCell id="k9uboM6s9roa3EWM2hxK-14" value="+ applyInputs(): void" style="text;strokeColor=none;fillColor=none;align=left;verticalAlign=top;spacingLeft=4;spacingRight=4;overflow=hidden;rotatable=0;points=[[0,0.5],[1,0.5]];portConstraint=eastwest;whiteSpace=wrap;html=1;rounded=0;" parent="JjhomQdFj9FOFFwPfBJc-71" vertex="1">
          <mxGeometry y="138" width="247" height="26" as="geometry" />
        </mxCell>
        <mxCell id="k9uboM6s9roa3EWM2hxK-12" value="+ applyCorrections(): void" style="text;strokeColor=none;fillColor=none;align=left;verticalAlign=top;spacingLeft=4;spacingRight=4;overflow=hidden;rotatable=0;points=[[0,0.5],[1,0.5]];portConstraint=eastwest;whiteSpace=wrap;html=1;rounded=0;" parent="JjhomQdFj9FOFFwPfBJc-71" vertex="1">
          <mxGeometry y="164" width="247" height="26" as="geometry" />
        </mxCell>
        <mxCell id="k9uboM6s9roa3EWM2hxK-15" value="+ controlMainMotor(): void" style="text;strokeColor=none;fillColor=none;align=left;verticalAlign=top;spacingLeft=4;spacingRight=4;overflow=hidden;rotatable=0;points=[[0,0.5],[1,0.5]];portConstraint=eastwest;whiteSpace=wrap;html=1;rounded=0;" parent="JjhomQdFj9FOFFwPfBJc-71" vertex="1">
          <mxGeometry y="190" width="247" height="26" as="geometry" />
        </mxCell>
        <mxCell id="k9uboM6s9roa3EWM2hxK-16" value="+ controlAftMotor(): void" style="text;strokeColor=none;fillColor=none;align=left;verticalAlign=top;spacingLeft=4;spacingRight=4;overflow=hidden;rotatable=0;points=[[0,0.5],[1,0.5]];portConstraint=eastwest;whiteSpace=wrap;html=1;rounded=0;" parent="JjhomQdFj9FOFFwPfBJc-71" vertex="1">
          <mxGeometry y="216" width="247" height="26" as="geometry" />
        </mxCell>
        <mxCell id="JjhomQdFj9FOFFwPfBJc-75" value="DroneLogic" style="swimlane;fontStyle=1;align=center;verticalAlign=top;childLayout=stackLayout;horizontal=1;startSize=26;horizontalStack=0;resizeParent=1;resizeParentMax=0;resizeLast=0;collapsible=1;marginBottom=0;whiteSpace=wrap;html=1;rounded=0;" parent="1" vertex="1">
          <mxGeometry x="-3195" y="-2999" width="246" height="86" as="geometry" />
        </mxCell>
        <mxCell id="JjhomQdFj9FOFFwPfBJc-76" value="+ field: type" style="text;strokeColor=none;fillColor=none;align=left;verticalAlign=top;spacingLeft=4;spacingRight=4;overflow=hidden;rotatable=0;points=[[0,0.5],[1,0.5]];portConstraint=eastwest;whiteSpace=wrap;html=1;rounded=0;" parent="JjhomQdFj9FOFFwPfBJc-75" vertex="1">
          <mxGeometry y="26" width="246" height="26" as="geometry" />
        </mxCell>
        <mxCell id="JjhomQdFj9FOFFwPfBJc-77" value="" style="line;strokeWidth=1;fillColor=none;align=left;verticalAlign=middle;spacingTop=-1;spacingLeft=3;spacingRight=3;rotatable=0;labelPosition=right;points=[];portConstraint=eastwest;strokeColor=inherit;rounded=0;" parent="JjhomQdFj9FOFFwPfBJc-75" vertex="1">
          <mxGeometry y="52" width="246" height="8" as="geometry" />
        </mxCell>
        <mxCell id="JjhomQdFj9FOFFwPfBJc-78" value="+ method(type): type" style="text;strokeColor=none;fillColor=none;align=left;verticalAlign=top;spacingLeft=4;spacingRight=4;overflow=hidden;rotatable=0;points=[[0,0.5],[1,0.5]];portConstraint=eastwest;whiteSpace=wrap;html=1;rounded=0;" parent="JjhomQdFj9FOFFwPfBJc-75" vertex="1">
          <mxGeometry y="60" width="246" height="26" as="geometry" />
        </mxCell>
        <mxCell id="JjhomQdFj9FOFFwPfBJc-79" value="PlaneLogic" style="swimlane;fontStyle=1;align=center;verticalAlign=top;childLayout=stackLayout;horizontal=1;startSize=26;horizontalStack=0;resizeParent=1;resizeParentMax=0;resizeLast=0;collapsible=1;marginBottom=0;whiteSpace=wrap;html=1;rounded=0;" parent="1" vertex="1">
          <mxGeometry x="-3195" y="-2902" width="244" height="86" as="geometry" />
        </mxCell>
        <mxCell id="JjhomQdFj9FOFFwPfBJc-80" value="+ field: type" style="text;strokeColor=none;fillColor=none;align=left;verticalAlign=top;spacingLeft=4;spacingRight=4;overflow=hidden;rotatable=0;points=[[0,0.5],[1,0.5]];portConstraint=eastwest;whiteSpace=wrap;html=1;rounded=0;" parent="JjhomQdFj9FOFFwPfBJc-79" vertex="1">
          <mxGeometry y="26" width="244" height="26" as="geometry" />
        </mxCell>
        <mxCell id="JjhomQdFj9FOFFwPfBJc-81" value="" style="line;strokeWidth=1;fillColor=none;align=left;verticalAlign=middle;spacingTop=-1;spacingLeft=3;spacingRight=3;rotatable=0;labelPosition=right;points=[];portConstraint=eastwest;strokeColor=inherit;rounded=0;" parent="JjhomQdFj9FOFFwPfBJc-79" vertex="1">
          <mxGeometry y="52" width="244" height="8" as="geometry" />
        </mxCell>
        <mxCell id="JjhomQdFj9FOFFwPfBJc-82" value="+ method(type): type" style="text;strokeColor=none;fillColor=none;align=left;verticalAlign=top;spacingLeft=4;spacingRight=4;overflow=hidden;rotatable=0;points=[[0,0.5],[1,0.5]];portConstraint=eastwest;whiteSpace=wrap;html=1;rounded=0;" parent="JjhomQdFj9FOFFwPfBJc-79" vertex="1">
          <mxGeometry y="60" width="244" height="26" as="geometry" />
        </mxCell>
        <mxCell id="JjhomQdFj9FOFFwPfBJc-83" style="edgeStyle=orthogonalEdgeStyle;rounded=0;orthogonalLoop=1;jettySize=auto;html=1;exitX=1;exitY=0.5;exitDx=0;exitDy=0;entryX=0;entryY=0.5;entryDx=0;entryDy=0;endArrow=block;endFill=0;startArrow=none;startFill=0;" parent="1" source="JjhomQdFj9FOFFwPfBJc-72" target="k9uboM6s9roa3EWM2hxK-20" edge="1">
          <mxGeometry relative="1" as="geometry">
            <mxPoint x="-2839" y="-3352" as="targetPoint" />
            <Array as="points" />
          </mxGeometry>
        </mxCell>
        <mxCell id="JjhomQdFj9FOFFwPfBJc-87" value="InputManager" style="swimlane;fontStyle=1;align=center;verticalAlign=top;childLayout=stackLayout;horizontal=1;startSize=26;horizontalStack=0;resizeParent=1;resizeParentMax=0;resizeLast=0;collapsible=1;marginBottom=0;whiteSpace=wrap;html=1;rounded=0;" parent="1" vertex="1">
          <mxGeometry x="-4056" y="-2270" width="160" height="86" as="geometry" />
        </mxCell>
        <mxCell id="JjhomQdFj9FOFFwPfBJc-88" value="+ field: type" style="text;strokeColor=none;fillColor=none;align=left;verticalAlign=top;spacingLeft=4;spacingRight=4;overflow=hidden;rotatable=0;points=[[0,0.5],[1,0.5]];portConstraint=eastwest;whiteSpace=wrap;html=1;rounded=0;" parent="JjhomQdFj9FOFFwPfBJc-87" vertex="1">
          <mxGeometry y="26" width="160" height="26" as="geometry" />
        </mxCell>
        <mxCell id="JjhomQdFj9FOFFwPfBJc-89" value="" style="line;strokeWidth=1;fillColor=none;align=left;verticalAlign=middle;spacingTop=-1;spacingLeft=3;spacingRight=3;rotatable=0;labelPosition=right;points=[];portConstraint=eastwest;strokeColor=inherit;rounded=0;" parent="JjhomQdFj9FOFFwPfBJc-87" vertex="1">
          <mxGeometry y="52" width="160" height="8" as="geometry" />
        </mxCell>
        <mxCell id="JjhomQdFj9FOFFwPfBJc-90" value="+ method(type): type" style="text;strokeColor=none;fillColor=none;align=left;verticalAlign=top;spacingLeft=4;spacingRight=4;overflow=hidden;rotatable=0;points=[[0,0.5],[1,0.5]];portConstraint=eastwest;whiteSpace=wrap;html=1;rounded=0;" parent="JjhomQdFj9FOFFwPfBJc-87" vertex="1">
          <mxGeometry y="60" width="160" height="26" as="geometry" />
        </mxCell>
        <mxCell id="JjhomQdFj9FOFFwPfBJc-91" value="WIFIHandler" style="swimlane;fontStyle=1;align=center;verticalAlign=top;childLayout=stackLayout;horizontal=1;startSize=26;horizontalStack=0;resizeParent=1;resizeParentMax=0;resizeLast=0;collapsible=1;marginBottom=0;whiteSpace=wrap;html=1;rounded=0;" parent="1" vertex="1">
          <mxGeometry x="-4996" y="-2278" width="160" height="164" as="geometry" />
        </mxCell>
        <mxCell id="JjhomQdFj9FOFFwPfBJc-92" value="- receivedMessage: string" style="text;strokeColor=none;fillColor=none;align=left;verticalAlign=top;spacingLeft=4;spacingRight=4;overflow=hidden;rotatable=0;points=[[0,0.5],[1,0.5]];portConstraint=eastwest;whiteSpace=wrap;html=1;rounded=0;" parent="JjhomQdFj9FOFFwPfBJc-91" vertex="1">
          <mxGeometry y="26" width="160" height="26" as="geometry" />
        </mxCell>
        <mxCell id="JjhomQdFj9FOFFwPfBJc-93" value="" style="line;strokeWidth=1;fillColor=none;align=left;verticalAlign=middle;spacingTop=-1;spacingLeft=3;spacingRight=3;rotatable=0;labelPosition=right;points=[];portConstraint=eastwest;strokeColor=inherit;rounded=0;" parent="JjhomQdFj9FOFFwPfBJc-91" vertex="1">
          <mxGeometry y="52" width="160" height="8" as="geometry" />
        </mxCell>
        <mxCell id="JjhomQdFj9FOFFwPfBJc-94" value="+ setupWiFi(): void" style="text;strokeColor=none;fillColor=none;align=left;verticalAlign=top;spacingLeft=4;spacingRight=4;overflow=hidden;rotatable=0;points=[[0,0.5],[1,0.5]];portConstraint=eastwest;whiteSpace=wrap;html=1;rounded=0;" parent="JjhomQdFj9FOFFwPfBJc-91" vertex="1">
          <mxGeometry y="60" width="160" height="26" as="geometry" />
        </mxCell>
        <mxCell id="k9uboM6s9roa3EWM2hxK-17" value="+ receiveMessage(): void" style="text;strokeColor=none;fillColor=none;align=left;verticalAlign=top;spacingLeft=4;spacingRight=4;overflow=hidden;rotatable=0;points=[[0,0.5],[1,0.5]];portConstraint=eastwest;whiteSpace=wrap;html=1;rounded=0;" parent="JjhomQdFj9FOFFwPfBJc-91" vertex="1">
          <mxGeometry y="86" width="160" height="26" as="geometry" />
        </mxCell>
        <mxCell id="BK80fyBNw5CtZlqeT4nZ-45" value="+ sendMessage(): void" style="text;strokeColor=none;fillColor=none;align=left;verticalAlign=top;spacingLeft=4;spacingRight=4;overflow=hidden;rotatable=0;points=[[0,0.5],[1,0.5]];portConstraint=eastwest;whiteSpace=wrap;html=1;rounded=0;" parent="JjhomQdFj9FOFFwPfBJc-91" vertex="1">
          <mxGeometry y="112" width="160" height="26" as="geometry" />
        </mxCell>
        <mxCell id="JjhomQdFj9FOFFwPfBJc-119" value="+ checkForError(): bool" style="text;strokeColor=none;fillColor=none;align=left;verticalAlign=top;spacingLeft=4;spacingRight=4;overflow=hidden;rotatable=0;points=[[0,0.5],[1,0.5]];portConstraint=eastwest;whiteSpace=wrap;html=1;rounded=0;" parent="JjhomQdFj9FOFFwPfBJc-91" vertex="1">
          <mxGeometry y="138" width="160" height="26" as="geometry" />
        </mxCell>
        <mxCell id="JjhomQdFj9FOFFwPfBJc-96" value="SBUSHandler" style="swimlane;fontStyle=1;align=center;verticalAlign=top;childLayout=stackLayout;horizontal=1;startSize=26;horizontalStack=0;resizeParent=1;resizeParentMax=0;resizeLast=0;collapsible=1;marginBottom=0;whiteSpace=wrap;html=1;rounded=0;" parent="1" vertex="1">
          <mxGeometry x="-4480" y="-2513" width="172" height="138" as="geometry" />
        </mxCell>
        <mxCell id="JjhomQdFj9FOFFwPfBJc-97" value="+ field: type" style="text;strokeColor=none;fillColor=none;align=left;verticalAlign=top;spacingLeft=4;spacingRight=4;overflow=hidden;rotatable=0;points=[[0,0.5],[1,0.5]];portConstraint=eastwest;whiteSpace=wrap;html=1;rounded=0;" parent="JjhomQdFj9FOFFwPfBJc-96" vertex="1">
          <mxGeometry y="26" width="172" height="26" as="geometry" />
        </mxCell>
        <mxCell id="JjhomQdFj9FOFFwPfBJc-98" value="" style="line;strokeWidth=1;fillColor=none;align=left;verticalAlign=middle;spacingTop=-1;spacingLeft=3;spacingRight=3;rotatable=0;labelPosition=right;points=[];portConstraint=eastwest;strokeColor=inherit;rounded=0;" parent="JjhomQdFj9FOFFwPfBJc-96" vertex="1">
          <mxGeometry y="52" width="172" height="8" as="geometry" />
        </mxCell>
        <mxCell id="JjhomQdFj9FOFFwPfBJc-99" value="+ init(): void" style="text;strokeColor=none;fillColor=none;align=left;verticalAlign=top;spacingLeft=4;spacingRight=4;overflow=hidden;rotatable=0;points=[[0,0.5],[1,0.5]];portConstraint=eastwest;whiteSpace=wrap;html=1;rounded=0;" parent="JjhomQdFj9FOFFwPfBJc-96" vertex="1">
          <mxGeometry y="60" width="172" height="26" as="geometry" />
        </mxCell>
        <mxCell id="k9uboM6s9roa3EWM2hxK-18" value="+ update(): void" style="text;strokeColor=none;fillColor=none;align=left;verticalAlign=top;spacingLeft=4;spacingRight=4;overflow=hidden;rotatable=0;points=[[0,0.5],[1,0.5]];portConstraint=eastwest;whiteSpace=wrap;html=1;rounded=0;" parent="JjhomQdFj9FOFFwPfBJc-96" vertex="1">
          <mxGeometry y="86" width="172" height="26" as="geometry" />
        </mxCell>
        <mxCell id="JjhomQdFj9FOFFwPfBJc-120" value="+ checkForError(): bool" style="text;strokeColor=none;fillColor=none;align=left;verticalAlign=top;spacingLeft=4;spacingRight=4;overflow=hidden;rotatable=0;points=[[0,0.5],[1,0.5]];portConstraint=eastwest;whiteSpace=wrap;html=1;rounded=0;" parent="JjhomQdFj9FOFFwPfBJc-96" vertex="1">
          <mxGeometry y="112" width="172" height="26" as="geometry" />
        </mxCell>
        <mxCell id="JjhomQdFj9FOFFwPfBJc-100" style="edgeStyle=orthogonalEdgeStyle;rounded=0;orthogonalLoop=1;jettySize=auto;html=1;entryX=0;entryY=0.5;entryDx=0;entryDy=0;endArrow=diamond;startFill=0;startArrow=none;endFill=1;" parent="1" source="JjhomQdFj9FOFFwPfBJc-96" target="JjhomQdFj9FOFFwPfBJc-88" edge="1">
          <mxGeometry relative="1" as="geometry">
            <Array as="points">
              <mxPoint x="-4146" y="-2401" />
              <mxPoint x="-4146" y="-2231" />
            </Array>
          </mxGeometry>
        </mxCell>
        <mxCell id="JjhomQdFj9FOFFwPfBJc-105" value="SafetyHandler" style="swimlane;fontStyle=1;align=center;verticalAlign=top;childLayout=stackLayout;horizontal=1;startSize=26;horizontalStack=0;resizeParent=1;resizeParentMax=0;resizeLast=0;collapsible=1;marginBottom=0;whiteSpace=wrap;html=1;rounded=0;" parent="1" vertex="1">
          <mxGeometry x="-4474" y="-3123" width="267" height="164" as="geometry" />
        </mxCell>
        <mxCell id="JjhomQdFj9FOFFwPfBJc-106" value="- m_emergencyState: bool" style="text;strokeColor=none;fillColor=none;align=left;verticalAlign=top;spacingLeft=4;spacingRight=4;overflow=hidden;rotatable=0;points=[[0,0.5],[1,0.5]];portConstraint=eastwest;whiteSpace=wrap;html=1;rounded=0;" parent="JjhomQdFj9FOFFwPfBJc-105" vertex="1">
          <mxGeometry y="26" width="267" height="26" as="geometry" />
        </mxCell>
        <mxCell id="JjhomQdFj9FOFFwPfBJc-116" value="- m_errors: list" style="text;strokeColor=none;fillColor=none;align=left;verticalAlign=top;spacingLeft=4;spacingRight=4;overflow=hidden;rotatable=0;points=[[0,0.5],[1,0.5]];portConstraint=eastwest;whiteSpace=wrap;html=1;rounded=0;" parent="JjhomQdFj9FOFFwPfBJc-105" vertex="1">
          <mxGeometry y="52" width="267" height="26" as="geometry" />
        </mxCell>
        <mxCell id="JjhomQdFj9FOFFwPfBJc-107" value="" style="line;strokeWidth=1;fillColor=none;align=left;verticalAlign=middle;spacingTop=-1;spacingLeft=3;spacingRight=3;rotatable=0;labelPosition=right;points=[];portConstraint=eastwest;strokeColor=inherit;rounded=0;" parent="JjhomQdFj9FOFFwPfBJc-105" vertex="1">
          <mxGeometry y="78" width="267" height="8" as="geometry" />
        </mxCell>
        <mxCell id="JjhomQdFj9FOFFwPfBJc-108" value="+ startEmergencyStop(): void" style="text;strokeColor=none;fillColor=none;align=left;verticalAlign=top;spacingLeft=4;spacingRight=4;overflow=hidden;rotatable=0;points=[[0,0.5],[1,0.5]];portConstraint=eastwest;whiteSpace=wrap;html=1;rounded=0;" parent="JjhomQdFj9FOFFwPfBJc-105" vertex="1">
          <mxGeometry y="86" width="267" height="26" as="geometry" />
        </mxCell>
        <mxCell id="JjhomQdFj9FOFFwPfBJc-109" value="+ stopEmergencyStop(): void" style="text;strokeColor=none;fillColor=none;align=left;verticalAlign=top;spacingLeft=4;spacingRight=4;overflow=hidden;rotatable=0;points=[[0,0.5],[1,0.5]];portConstraint=eastwest;whiteSpace=wrap;html=1;rounded=0;" parent="JjhomQdFj9FOFFwPfBJc-105" vertex="1">
          <mxGeometry y="112" width="267" height="26" as="geometry" />
        </mxCell>
        <mxCell id="JjhomQdFj9FOFFwPfBJc-115" value="+ reportErrors(source: string, error: string): void" style="text;strokeColor=none;fillColor=none;align=left;verticalAlign=top;spacingLeft=4;spacingRight=4;overflow=hidden;rotatable=0;points=[[0,0.5],[1,0.5]];portConstraint=eastwest;whiteSpace=wrap;html=1;rounded=0;" parent="JjhomQdFj9FOFFwPfBJc-105" vertex="1">
          <mxGeometry y="138" width="267" height="26" as="geometry" />
        </mxCell>
        <mxCell id="JjhomQdFj9FOFFwPfBJc-111" style="edgeStyle=orthogonalEdgeStyle;rounded=0;orthogonalLoop=1;jettySize=auto;html=1;exitX=0;exitY=0.5;exitDx=0;exitDy=0;entryX=1;entryY=0.5;entryDx=0;entryDy=0;startArrow=none;startFill=0;endArrow=none;endFill=0;" parent="1" source="JjhomQdFj9FOFFwPfBJc-123" target="JjhomQdFj9FOFFwPfBJc-106" edge="1">
          <mxGeometry relative="1" as="geometry" />
        </mxCell>
        <mxCell id="JjhomQdFj9FOFFwPfBJc-114" style="edgeStyle=orthogonalEdgeStyle;rounded=0;orthogonalLoop=1;jettySize=auto;html=1;exitX=0;exitY=0.5;exitDx=0;exitDy=0;entryX=0;entryY=0.5;entryDx=0;entryDy=0;dashed=1;startArrow=block;startFill=0;endArrow=none;endFill=0;" parent="1" source="JjhomQdFj9FOFFwPfBJc-104" target="JjhomQdFj9FOFFwPfBJc-115" edge="1">
          <mxGeometry relative="1" as="geometry" />
        </mxCell>
        <mxCell id="JjhomQdFj9FOFFwPfBJc-118" style="edgeStyle=orthogonalEdgeStyle;rounded=0;orthogonalLoop=1;jettySize=auto;html=1;exitX=0;exitY=0.5;exitDx=0;exitDy=0;entryX=0;entryY=0.5;entryDx=0;entryDy=0;dashed=1;startArrow=block;startFill=0;endArrow=none;endFill=0;" parent="1" source="JjhomQdFj9FOFFwPfBJc-117" target="JjhomQdFj9FOFFwPfBJc-115" edge="1">
          <mxGeometry relative="1" as="geometry">
            <Array as="points">
              <mxPoint x="-4528" y="-2566" />
              <mxPoint x="-4528" y="-2972" />
            </Array>
          </mxGeometry>
        </mxCell>
        <mxCell id="JjhomQdFj9FOFFwPfBJc-124" value="" style="edgeStyle=orthogonalEdgeStyle;rounded=0;orthogonalLoop=1;jettySize=auto;html=1;exitX=0;exitY=0.5;exitDx=0;exitDy=0;entryX=1;entryY=0.5;entryDx=0;entryDy=0;endArrow=none;endFill=0;startArrow=diamond;startFill=1;" parent="1" source="JjhomQdFj9FOFFwPfBJc-126" target="JjhomQdFj9FOFFwPfBJc-123" edge="1">
          <mxGeometry relative="1" as="geometry">
            <mxPoint x="-3760" y="-3097" as="sourcePoint" />
            <mxPoint x="-3977" y="-3192" as="targetPoint" />
            <Array as="points">
              <mxPoint x="-3902" y="-3212" />
              <mxPoint x="-3902" y="-3085" />
              <mxPoint x="-4044" y="-3085" />
            </Array>
          </mxGeometry>
        </mxCell>
        <mxCell id="JjhomQdFj9FOFFwPfBJc-123" value="&lt;div style=&quot;&quot;&gt;&lt;span style=&quot;font-size: 8px; font-weight: normal; background-color: initial;&quot;&gt;Wenn ein Notfall erkannt wird,&amp;nbsp;&lt;/span&gt;&lt;/div&gt;&lt;div style=&quot;&quot;&gt;&lt;span style=&quot;font-weight: normal;&quot;&gt;&lt;font style=&quot;font-size: 8px;&quot;&gt;aktiviert der&amp;nbsp;&lt;/font&gt;&lt;/span&gt;&lt;span style=&quot;font-size: 8px; font-weight: normal; background-color: initial;&quot;&gt;ModeManager&amp;nbsp;&lt;/span&gt;&lt;/div&gt;&lt;div style=&quot;&quot;&gt;&lt;span style=&quot;font-size: 8px; font-weight: normal; background-color: initial;&quot;&gt;den Failsafe-Modus&lt;/span&gt;&lt;/div&gt;" style="text;align=left;fontStyle=1;verticalAlign=middle;spacingLeft=3;spacingRight=3;strokeColor=none;rotatable=0;points=[[0,0.5],[1,0.5]];portConstraint=eastwest;html=1;rounded=0;" parent="1" vertex="1">
          <mxGeometry x="-4162" y="-3097" width="118" height="26" as="geometry" />
        </mxCell>
        <mxCell id="zW69ieqtV_I8AFquDf9d-1" style="edgeStyle=orthogonalEdgeStyle;rounded=0;orthogonalLoop=1;jettySize=auto;html=1;entryX=0;entryY=0.5;entryDx=0;entryDy=0;startArrow=none;startFill=0;endArrow=diamond;endFill=1;" parent="1" source="JjhomQdFj9FOFFwPfBJc-87" target="JjhomQdFj9FOFFwPfBJc-127" edge="1">
          <mxGeometry relative="1" as="geometry">
            <Array as="points">
              <mxPoint x="-3836" y="-2227" />
              <mxPoint x="-3836" y="-3160" />
            </Array>
            <mxPoint x="-3871" y="-2463" as="sourcePoint" />
          </mxGeometry>
        </mxCell>
        <mxCell id="zW69ieqtV_I8AFquDf9d-3" style="edgeStyle=orthogonalEdgeStyle;rounded=0;orthogonalLoop=1;jettySize=auto;html=1;exitX=0;exitY=0.5;exitDx=0;exitDy=0;entryX=1;entryY=0.5;entryDx=0;entryDy=0;endArrow=none;endFill=0;startArrow=block;startFill=0;" parent="1" source="k9uboM6s9roa3EWM2hxK-20" target="JjhomQdFj9FOFFwPfBJc-76" edge="1">
          <mxGeometry relative="1" as="geometry">
            <Array as="points">
              <mxPoint x="-2901" y="-3212" />
              <mxPoint x="-2901" y="-2960" />
            </Array>
            <mxPoint x="-2839" y="-3352" as="sourcePoint" />
          </mxGeometry>
        </mxCell>
        <mxCell id="zW69ieqtV_I8AFquDf9d-4" style="edgeStyle=orthogonalEdgeStyle;rounded=0;orthogonalLoop=1;jettySize=auto;html=1;exitX=0;exitY=0.5;exitDx=0;exitDy=0;entryX=1;entryY=0.5;entryDx=0;entryDy=0;endArrow=none;endFill=0;startArrow=block;startFill=0;" parent="1" source="k9uboM6s9roa3EWM2hxK-20" target="JjhomQdFj9FOFFwPfBJc-80" edge="1">
          <mxGeometry relative="1" as="geometry">
            <Array as="points">
              <mxPoint x="-2901" y="-3212" />
              <mxPoint x="-2901" y="-2863" />
            </Array>
            <mxPoint x="-2839" y="-3352" as="sourcePoint" />
          </mxGeometry>
        </mxCell>
        <mxCell id="k9uboM6s9roa3EWM2hxK-19" value="BaseLogic" style="swimlane;fontStyle=1;align=center;verticalAlign=top;childLayout=stackLayout;horizontal=1;startSize=26;horizontalStack=0;resizeParent=1;resizeParentMax=0;resizeLast=0;collapsible=1;marginBottom=0;whiteSpace=wrap;html=1;rounded=0;" parent="1" vertex="1">
          <mxGeometry x="-2858" y="-3251" width="160" height="86" as="geometry" />
        </mxCell>
        <mxCell id="k9uboM6s9roa3EWM2hxK-20" value="+ field: type" style="text;strokeColor=none;fillColor=none;align=left;verticalAlign=top;spacingLeft=4;spacingRight=4;overflow=hidden;rotatable=0;points=[[0,0.5],[1,0.5]];portConstraint=eastwest;whiteSpace=wrap;html=1;rounded=0;" parent="k9uboM6s9roa3EWM2hxK-19" vertex="1">
          <mxGeometry y="26" width="160" height="26" as="geometry" />
        </mxCell>
        <mxCell id="k9uboM6s9roa3EWM2hxK-21" value="" style="line;strokeWidth=1;fillColor=none;align=left;verticalAlign=middle;spacingTop=-1;spacingLeft=3;spacingRight=3;rotatable=0;labelPosition=right;points=[];portConstraint=eastwest;strokeColor=inherit;rounded=0;" parent="k9uboM6s9roa3EWM2hxK-19" vertex="1">
          <mxGeometry y="52" width="160" height="8" as="geometry" />
        </mxCell>
        <mxCell id="k9uboM6s9roa3EWM2hxK-22" value="+ calculatePID(): float" style="text;strokeColor=none;fillColor=none;align=left;verticalAlign=top;spacingLeft=4;spacingRight=4;overflow=hidden;rotatable=0;points=[[0,0.5],[1,0.5]];portConstraint=eastwest;whiteSpace=wrap;html=1;rounded=0;" parent="k9uboM6s9roa3EWM2hxK-19" vertex="1">
          <mxGeometry y="60" width="160" height="26" as="geometry" />
        </mxCell>
        <mxCell id="k9uboM6s9roa3EWM2hxK-23" value="ModeManager" style="swimlane;fontStyle=1;align=center;verticalAlign=top;childLayout=stackLayout;horizontal=1;startSize=26;horizontalStack=0;resizeParent=1;resizeParentMax=0;resizeLast=0;collapsible=1;marginBottom=0;whiteSpace=wrap;html=1;rounded=0;" parent="1" vertex="1">
          <mxGeometry x="-3458" y="-3251" width="165" height="86" as="geometry" />
        </mxCell>
        <mxCell id="k9uboM6s9roa3EWM2hxK-24" value="+ currentMode: int" style="text;strokeColor=none;fillColor=none;align=left;verticalAlign=top;spacingLeft=4;spacingRight=4;overflow=hidden;rotatable=0;points=[[0,0.5],[1,0.5]];portConstraint=eastwest;whiteSpace=wrap;html=1;rounded=0;" parent="k9uboM6s9roa3EWM2hxK-23" vertex="1">
          <mxGeometry y="26" width="165" height="26" as="geometry" />
        </mxCell>
        <mxCell id="k9uboM6s9roa3EWM2hxK-25" value="" style="line;strokeWidth=1;fillColor=none;align=left;verticalAlign=middle;spacingTop=-1;spacingLeft=3;spacingRight=3;rotatable=0;labelPosition=right;points=[];portConstraint=eastwest;strokeColor=inherit;rounded=0;" parent="k9uboM6s9roa3EWM2hxK-23" vertex="1">
          <mxGeometry y="52" width="165" height="8" as="geometry" />
        </mxCell>
        <mxCell id="k9uboM6s9roa3EWM2hxK-26" value="+ method(type): type" style="text;strokeColor=none;fillColor=none;align=left;verticalAlign=top;spacingLeft=4;spacingRight=4;overflow=hidden;rotatable=0;points=[[0,0.5],[1,0.5]];portConstraint=eastwest;whiteSpace=wrap;html=1;rounded=0;" parent="k9uboM6s9roa3EWM2hxK-23" vertex="1">
          <mxGeometry y="60" width="165" height="26" as="geometry" />
        </mxCell>
        <mxCell id="k9uboM6s9roa3EWM2hxK-27" style="edgeStyle=orthogonalEdgeStyle;orthogonalLoop=1;jettySize=auto;html=1;exitX=0;exitY=0.5;exitDx=0;exitDy=0;entryX=1;entryY=0.5;entryDx=0;entryDy=0;rounded=0;curved=0;endArrow=diamond;endFill=1;" parent="1" source="JjhomQdFj9FOFFwPfBJc-72" target="k9uboM6s9roa3EWM2hxK-24" edge="1">
          <mxGeometry relative="1" as="geometry" />
        </mxCell>
        <mxCell id="k9uboM6s9roa3EWM2hxK-28" style="edgeStyle=orthogonalEdgeStyle;orthogonalLoop=1;jettySize=auto;html=1;exitX=0;exitY=0.5;exitDx=0;exitDy=0;endArrow=diamond;endFill=1;rounded=0;curved=0;" parent="1" source="JjhomQdFj9FOFFwPfBJc-76" target="k9uboM6s9roa3EWM2hxK-24" edge="1">
          <mxGeometry relative="1" as="geometry" />
        </mxCell>
        <mxCell id="k9uboM6s9roa3EWM2hxK-29" style="edgeStyle=orthogonalEdgeStyle;orthogonalLoop=1;jettySize=auto;html=1;exitX=0;exitY=0.5;exitDx=0;exitDy=0;entryX=1;entryY=0.5;entryDx=0;entryDy=0;endArrow=diamond;endFill=1;rounded=0;curved=0;" parent="1" source="JjhomQdFj9FOFFwPfBJc-80" target="k9uboM6s9roa3EWM2hxK-24" edge="1">
          <mxGeometry relative="1" as="geometry" />
        </mxCell>
        <mxCell id="k9uboM6s9roa3EWM2hxK-30" style="edgeStyle=orthogonalEdgeStyle;orthogonalLoop=1;jettySize=auto;html=1;exitX=0;exitY=0.5;exitDx=0;exitDy=0;endArrow=diamond;endFill=1;rounded=0;curved=0;startArrow=none;startFill=0;entryX=1;entryY=0.5;entryDx=0;entryDy=0;" parent="1" source="k9uboM6s9roa3EWM2hxK-24" target="JjhomQdFj9FOFFwPfBJc-125" edge="1">
          <mxGeometry relative="1" as="geometry">
            <mxPoint x="-3527" y="-3108" as="targetPoint" />
          </mxGeometry>
        </mxCell>
        <mxCell id="k-BAdYvg3pdwYFmg4S5h-5" style="edgeStyle=orthogonalEdgeStyle;rounded=0;orthogonalLoop=1;jettySize=auto;html=1;" edge="1" parent="1" source="AJ7bM953EJ45vb4cOq47-26" target="k-BAdYvg3pdwYFmg4S5h-1">
          <mxGeometry relative="1" as="geometry" />
        </mxCell>
        <mxCell id="AJ7bM953EJ45vb4cOq47-26" value="DatagrammHandler" style="swimlane;fontStyle=1;align=center;verticalAlign=top;childLayout=stackLayout;horizontal=1;startSize=26;horizontalStack=0;resizeParent=1;resizeParentMax=0;resizeLast=0;collapsible=1;marginBottom=0;whiteSpace=wrap;html=1;rounded=0;" parent="1" vertex="1">
          <mxGeometry x="-4732" y="-2278" width="171" height="86" as="geometry" />
        </mxCell>
        <mxCell id="AJ7bM953EJ45vb4cOq47-29" value="" style="line;strokeWidth=1;fillColor=none;align=left;verticalAlign=middle;spacingTop=-1;spacingLeft=3;spacingRight=3;rotatable=0;labelPosition=right;points=[];portConstraint=eastwest;strokeColor=inherit;rounded=0;" parent="AJ7bM953EJ45vb4cOq47-26" vertex="1">
          <mxGeometry y="26" width="171" height="8" as="geometry" />
        </mxCell>
        <mxCell id="BK80fyBNw5CtZlqeT4nZ-35" value="+ parseDatagram(): vector" style="text;strokeColor=none;fillColor=none;align=left;verticalAlign=top;spacingLeft=4;spacingRight=4;overflow=hidden;rotatable=0;points=[[0,0.5],[1,0.5]];portConstraint=eastwest;whiteSpace=wrap;html=1;rounded=0;" parent="AJ7bM953EJ45vb4cOq47-26" vertex="1">
          <mxGeometry y="34" width="171" height="26" as="geometry" />
        </mxCell>
        <mxCell id="BK80fyBNw5CtZlqeT4nZ-2" value="+ createDatagram(): vector" style="text;strokeColor=none;fillColor=none;align=left;verticalAlign=top;spacingLeft=4;spacingRight=4;overflow=hidden;rotatable=0;points=[[0,0.5],[1,0.5]];portConstraint=eastwest;whiteSpace=wrap;html=1;rounded=0;" parent="AJ7bM953EJ45vb4cOq47-26" vertex="1">
          <mxGeometry y="60" width="171" height="26" as="geometry" />
        </mxCell>
        <mxCell id="BK80fyBNw5CtZlqeT4nZ-39" style="edgeStyle=orthogonalEdgeStyle;rounded=0;orthogonalLoop=1;jettySize=auto;html=1;exitX=1;exitY=0.5;exitDx=0;exitDy=0;entryX=0;entryY=0.5;entryDx=0;entryDy=0;" parent="1" source="BK80fyBNw5CtZlqeT4nZ-38" target="JjhomQdFj9FOFFwPfBJc-36" edge="1">
          <mxGeometry relative="1" as="geometry" />
        </mxCell>
        <mxCell id="BK80fyBNw5CtZlqeT4nZ-38" value="config" style="shape=datastore;whiteSpace=wrap;html=1;" parent="1" vertex="1">
          <mxGeometry x="-4583" y="-1971.5" width="121" height="121" as="geometry" />
        </mxCell>
        <mxCell id="BK80fyBNw5CtZlqeT4nZ-46" style="edgeStyle=orthogonalEdgeStyle;rounded=0;orthogonalLoop=1;jettySize=auto;html=1;exitX=1;exitY=0.5;exitDx=0;exitDy=0;entryX=0;entryY=0.5;entryDx=0;entryDy=0;" parent="1" source="k9uboM6s9roa3EWM2hxK-17" target="BK80fyBNw5CtZlqeT4nZ-35" edge="1">
          <mxGeometry relative="1" as="geometry">
            <Array as="points">
              <mxPoint x="-4799" y="-2179" />
              <mxPoint x="-4799" y="-2231" />
            </Array>
          </mxGeometry>
        </mxCell>
        <mxCell id="BK80fyBNw5CtZlqeT4nZ-47" style="edgeStyle=orthogonalEdgeStyle;rounded=0;orthogonalLoop=1;jettySize=auto;html=1;exitX=0;exitY=0.5;exitDx=0;exitDy=0;entryX=1;entryY=0.5;entryDx=0;entryDy=0;" parent="1" source="BK80fyBNw5CtZlqeT4nZ-2" target="BK80fyBNw5CtZlqeT4nZ-45" edge="1">
          <mxGeometry relative="1" as="geometry">
            <Array as="points">
              <mxPoint x="-4773" y="-2205" />
              <mxPoint x="-4773" y="-2153" />
            </Array>
          </mxGeometry>
        </mxCell>
        <mxCell id="BK80fyBNw5CtZlqeT4nZ-49" value="TelemetrylManager" style="swimlane;fontStyle=1;align=center;verticalAlign=top;childLayout=stackLayout;horizontal=1;startSize=26;horizontalStack=0;resizeParent=1;resizeParentMax=0;resizeLast=0;collapsible=1;marginBottom=0;whiteSpace=wrap;html=1;rounded=0;" parent="1" vertex="1">
          <mxGeometry x="-4056" y="-2146" width="160" height="86" as="geometry" />
        </mxCell>
        <mxCell id="BK80fyBNw5CtZlqeT4nZ-50" value="+ field: type" style="text;strokeColor=none;fillColor=none;align=left;verticalAlign=top;spacingLeft=4;spacingRight=4;overflow=hidden;rotatable=0;points=[[0,0.5],[1,0.5]];portConstraint=eastwest;whiteSpace=wrap;html=1;rounded=0;" parent="BK80fyBNw5CtZlqeT4nZ-49" vertex="1">
          <mxGeometry y="26" width="160" height="26" as="geometry" />
        </mxCell>
        <mxCell id="BK80fyBNw5CtZlqeT4nZ-51" value="" style="line;strokeWidth=1;fillColor=none;align=left;verticalAlign=middle;spacingTop=-1;spacingLeft=3;spacingRight=3;rotatable=0;labelPosition=right;points=[];portConstraint=eastwest;strokeColor=inherit;rounded=0;" parent="BK80fyBNw5CtZlqeT4nZ-49" vertex="1">
          <mxGeometry y="52" width="160" height="8" as="geometry" />
        </mxCell>
        <mxCell id="BK80fyBNw5CtZlqeT4nZ-52" value="+ method(type): type" style="text;strokeColor=none;fillColor=none;align=left;verticalAlign=top;spacingLeft=4;spacingRight=4;overflow=hidden;rotatable=0;points=[[0,0.5],[1,0.5]];portConstraint=eastwest;whiteSpace=wrap;html=1;rounded=0;" parent="BK80fyBNw5CtZlqeT4nZ-49" vertex="1">
          <mxGeometry y="60" width="160" height="26" as="geometry" />
        </mxCell>
        <mxCell id="BK80fyBNw5CtZlqeT4nZ-54" style="edgeStyle=orthogonalEdgeStyle;rounded=0;orthogonalLoop=1;jettySize=auto;html=1;exitX=0;exitY=0.5;exitDx=0;exitDy=0;entryX=0;entryY=0.5;entryDx=0;entryDy=0;endArrow=none;endFill=0;startArrow=block;startFill=0;dashed=1;" parent="1" source="JjhomQdFj9FOFFwPfBJc-120" target="JjhomQdFj9FOFFwPfBJc-115" edge="1">
          <mxGeometry relative="1" as="geometry">
            <Array as="points">
              <mxPoint x="-4571" y="-2388" />
              <mxPoint x="-4571" y="-2972" />
            </Array>
          </mxGeometry>
        </mxCell>
        <mxCell id="BK80fyBNw5CtZlqeT4nZ-56" style="edgeStyle=entityRelationEdgeStyle;rounded=0;orthogonalLoop=1;jettySize=auto;html=1;startArrow=none;endArrow=block;segment=10;curved=1;sourcePerimeterSpacing=0;targetPerimeterSpacing=0;exitX=1;exitY=0.5;exitDx=0;exitDy=0;entryX=0;entryY=0.5;entryDx=0;entryDy=0;endFill=1;" parent="1" source="BK80fyBNw5CtZlqeT4nZ-55" target="k9uboM6s9roa3EWM2hxK-17" edge="1">
          <mxGeometry relative="1" as="geometry">
            <Array as="points">
              <mxPoint x="-5070" y="-2181" />
            </Array>
          </mxGeometry>
        </mxCell>
        <mxCell id="BK80fyBNw5CtZlqeT4nZ-55" value="UDP Message" style="ellipse;whiteSpace=wrap;html=1;align=center;newEdgeStyle={&quot;edgeStyle&quot;:&quot;entityRelationEdgeStyle&quot;,&quot;startArrow&quot;:&quot;none&quot;,&quot;endArrow&quot;:&quot;none&quot;,&quot;segment&quot;:10,&quot;curved&quot;:1,&quot;sourcePerimeterSpacing&quot;:0,&quot;targetPerimeterSpacing&quot;:0};treeFolding=1;treeMoving=1;" parent="1" vertex="1">
          <mxGeometry x="-5130" y="-2199" width="100" height="40" as="geometry" />
        </mxCell>
        <mxCell id="BK80fyBNw5CtZlqeT4nZ-57" style="edgeStyle=orthogonalEdgeStyle;rounded=0;orthogonalLoop=1;jettySize=auto;html=1;" parent="1" source="JjhomQdFj9FOFFwPfBJc-15" target="BK80fyBNw5CtZlqeT4nZ-49" edge="1">
          <mxGeometry relative="1" as="geometry">
            <Array as="points">
              <mxPoint x="-4234" y="-2103" />
            </Array>
          </mxGeometry>
        </mxCell>
        <mxCell id="k-BAdYvg3pdwYFmg4S5h-6" style="edgeStyle=orthogonalEdgeStyle;rounded=0;orthogonalLoop=1;jettySize=auto;html=1;" edge="1" parent="1" source="k-BAdYvg3pdwYFmg4S5h-1" target="JjhomQdFj9FOFFwPfBJc-87">
          <mxGeometry relative="1" as="geometry" />
        </mxCell>
        <mxCell id="k-BAdYvg3pdwYFmg4S5h-1" value="UDPManager" style="swimlane;fontStyle=1;align=center;verticalAlign=top;childLayout=stackLayout;horizontal=1;startSize=26;horizontalStack=0;resizeParent=1;resizeParentMax=0;resizeLast=0;collapsible=1;marginBottom=0;whiteSpace=wrap;html=1;rounded=0;" vertex="1" parent="1">
          <mxGeometry x="-4515" y="-2278" width="171" height="60" as="geometry" />
        </mxCell>
        <mxCell id="k-BAdYvg3pdwYFmg4S5h-2" value="" style="line;strokeWidth=1;fillColor=none;align=left;verticalAlign=middle;spacingTop=-1;spacingLeft=3;spacingRight=3;rotatable=0;labelPosition=right;points=[];portConstraint=eastwest;strokeColor=inherit;rounded=0;" vertex="1" parent="k-BAdYvg3pdwYFmg4S5h-1">
          <mxGeometry y="26" width="171" height="8" as="geometry" />
        </mxCell>
        <mxCell id="k-BAdYvg3pdwYFmg4S5h-3" value="+ handleMessage(): vector" style="text;strokeColor=none;fillColor=none;align=left;verticalAlign=top;spacingLeft=4;spacingRight=4;overflow=hidden;rotatable=0;points=[[0,0.5],[1,0.5]];portConstraint=eastwest;whiteSpace=wrap;html=1;rounded=0;" vertex="1" parent="k-BAdYvg3pdwYFmg4S5h-1">
          <mxGeometry y="34" width="171" height="26" as="geometry" />
        </mxCell>
      </root>
    </mxGraphModel>
  </diagram>
</mxfile>
